<svg width="17" height="16" viewBox="0 0 17 16" fill="none" xmlns="http://www.w3.org/2000/svg">
<g clip-path="url(#clip0_10_42)">
<path d="M16.0004 4.70404C15.9629 3.8539 15.8255 3.26944 15.6285 2.76299C15.4254 2.22541 15.1128 1.74412 14.7033 1.34401C14.3032 0.937683 13.8187 0.621948 13.2874 0.421957C12.778 0.22502 12.1966 0.0875415 11.3464 0.0500586C10.49 0.00940124 10.218 0 8.04575 0C5.87345 0 5.60155 0.00940124 4.74823 0.0468842C3.89809 0.0843671 3.31363 0.221967 2.8073 0.418783C2.2696 0.621948 1.7883 0.934509 1.3882 1.34401C0.981872 1.74412 0.666259 2.22858 0.466147 2.75994C0.269209 3.26944 0.131731 3.85073 0.094248 4.70087C0.0535907 5.55736 0.0441895 5.82926 0.0441895 8.00156C0.0441895 10.1739 0.0535907 10.4458 0.0910736 11.2991C0.128556 12.1492 0.266157 12.7337 0.463094 13.2401C0.666259 13.7777 0.981872 14.259 1.3882 14.6591C1.7883 15.0654 2.27277 15.3812 2.80413 15.5812C3.31363 15.7781 3.89492 15.9156 4.74518 15.9531C5.59837 15.9907 5.8704 16 8.0427 16C10.215 16 10.4869 15.9907 11.3402 15.9531C12.1904 15.9156 12.7748 15.7781 13.2811 15.5812C14.3564 15.1654 15.2066 14.3153 15.6223 13.2401C15.8191 12.7306 15.9567 12.1492 15.9942 11.2991C16.0317 10.4458 16.0411 10.1739 16.0411 8.00156C16.0411 5.82926 16.0379 5.55736 16.0004 4.70404ZM14.5596 11.2366C14.5252 12.018 14.3939 12.4399 14.2845 12.7212C14.0157 13.4183 13.4625 13.9715 12.7654 14.2403C12.4841 14.3497 12.0591 14.481 11.2808 14.5153C10.4368 14.5529 10.1837 14.5622 8.04892 14.5622C5.91411 14.5622 5.65783 14.5529 4.81697 14.5153C4.03557 14.481 3.61361 14.3497 3.33231 14.2403C2.98544 14.1121 2.6697 13.909 2.41343 13.6433C2.14775 13.3838 1.94458 13.0713 1.81639 12.7244C1.70699 12.4431 1.57574 12.018 1.54143 11.2397C1.50382 10.3958 1.49455 10.1426 1.49455 8.00779C1.49455 5.87297 1.50382 5.6167 1.54143 4.77596C1.57574 3.99455 1.70699 3.5726 1.81639 3.29129C1.94458 2.9443 2.14775 2.62869 2.4166 2.37229C2.67593 2.10661 2.98849 1.90345 3.33548 1.77537C3.61679 1.66597 4.04192 1.53472 4.82015 1.50029C5.66406 1.46281 5.91728 1.45341 8.05198 1.45341C10.19 1.45341 10.4431 1.46281 11.2839 1.50029C12.0653 1.53472 12.4873 1.66597 12.7686 1.77537C13.1155 1.90345 13.4312 2.10661 13.6875 2.37229C13.9532 2.63174 14.1563 2.9443 14.2845 3.29129C14.3939 3.5726 14.5252 3.99761 14.5596 4.77596C14.5971 5.61987 14.6065 5.87297 14.6065 8.00779C14.6065 10.1426 14.5971 10.3927 14.5596 11.2366Z" fill="white"/>
<path d="M8.04572 3.8916C5.7766 3.8916 3.93555 5.73254 3.93555 8.00178C3.93555 10.271 5.7766 12.112 8.04572 12.112C10.315 12.112 12.1559 10.271 12.1559 8.00178C12.1559 5.73254 10.315 3.8916 8.04572 3.8916ZM8.04572 10.6679C6.57363 10.6679 5.37955 9.47399 5.37955 8.00178C5.37955 6.52957 6.57363 5.33561 8.04572 5.33561C9.51793 5.33561 10.7119 6.52957 10.7119 8.00178C10.7119 9.47399 9.51793 10.6679 8.04572 10.6679Z" fill="white"/>
<path d="M13.2781 3.72858C13.2781 4.25847 12.8484 4.68812 12.3184 4.68812C11.7885 4.68812 11.3589 4.25847 11.3589 3.72858C11.3589 3.19857 11.7885 2.76904 12.3184 2.76904C12.8484 2.76904 13.2781 3.19857 13.2781 3.72858Z" fill="white"/>
</g>
<defs>
<clipPath id="clip0_10_42">
<rect width="16" height="16" fill="white" transform="translate(0.0161133)"/>
</clipPath>
</defs>
</svg>
