<svg width="15" height="14" viewBox="0 0 15 14" fill="none" xmlns="http://www.w3.org/2000/svg">
<g clip-path="url(#clip0_10_23)">
<path d="M12.6161 0H1.41611C0.646113 0 0.0161133 0.63 0.0161133 1.4V12.6C0.0161133 13.37 0.646113 14 1.41611 14H12.6161C13.3861 14 14.0161 13.37 14.0161 12.6V1.4C14.0161 0.63 13.3861 0 12.6161 0ZM4.21611 11.9H2.11611V5.6H4.21611V11.9ZM3.16611 4.41C2.46611 4.41 1.90611 3.85 1.90611 3.15C1.90611 2.45 2.46611 1.89 3.16611 1.89C3.86611 1.89 4.42611 2.45 4.42611 3.15C4.42611 3.85 3.86611 4.41 3.16611 4.41ZM11.9161 11.9H9.81611V8.19C9.81611 7.63003 9.32611 7.14 8.76611 7.14C8.20611 7.14 7.71611 7.63003 7.71611 8.19V11.9H5.61611V5.6H7.71611V6.44C8.06611 5.88 8.83611 5.46 9.46611 5.46C10.7961 5.46 11.9161 6.58 11.9161 7.91V11.9Z" fill="white"/>
</g>
<defs>
<clipPath id="clip0_10_23">
<rect width="14" height="14" fill="white" transform="translate(0.0161133)"/>
</clipPath>
</defs>
</svg>
